<svg id="Layer_35" enable-background="new 0 0 64 64" height="512" viewBox="0 0 64 64" width="512" xmlns="http://www.w3.org/2000/svg"><path d="m46 53h-6v3 1h-10v4h31v-12h-15zm11 4h2v2h-2zm-4 0h2v2h-2zm-4 0h2v2h-2z"/><circle cx="39" cy="8" r="5"/><path d="m59.662 7c-.248 0-.49.068-.701.198l-10.026 6.17c-1.735 1.068-3.728 1.632-5.765 1.632h-5.17c-4.963 0-9 4.038-9 9v8c0 1.654 1.346 3 3 3v-15h2v35h4v-4-17h2 6c1.103 0 2 .897 2 2v11h4v-14c0-1.654-1.346-3-3-3h-4.001l.001-7.783c0-1.734.878-3.319 2.35-4.239l13.021-8.139c.394-.246.629-.67.629-1.135v-.366c0-.737-.601-1.338-1.338-1.338z"/><path d="m17.148 23.912-4.088 5.723-4.608-5.53c-3.231 1.659-5.452 5.019-5.452 8.895v8c0 1.103.897 2 2 2h1v-14h2v30c0 1.103.897 2 2 2s2-.897 2-2v-20h2v20c0 1.103.897 2 2 2s2-.897 2-2v-30h2v14h1c1.103 0 2-.897 2-2v-8c0-4.033-2.405-7.507-5.852-9.088z"/><circle cx="13" cy="16" r="5"/><path d="m10.426 23.348 2.514 3.016 2.23-3.121c-.7-.155-1.425-.243-2.17-.243-.891 0-1.751.128-2.574.348z"/></svg>