<svg height="58pt" viewBox="0 0 58 58" width="58pt" xmlns="http://www.w3.org/2000/svg"><path d="m22 39c0-1.652344-1.347656-3-3-3s-3 1.347656-3 3 1.347656 3 3 3 3-1.34375 3-3zm-4 0c0-.550781.449219-1 1-1s1 .449219 1 1-.449219 1-1 1-1-.449219-1-1zm0 0"/><path d="m14.050781 34.050781c-1.320312 1.320313-2.050781 3.078125-2.050781 4.949219s.730469 3.628906 2.050781 4.949219c1.320313 1.320312 3.078125 2.050781 4.949219 2.050781s3.628906-.730469 4.949219-2.050781l-1.414063-1.414063c-.945312.945313-2.199218 1.464844-3.535156 1.464844s-2.589844-.519531-3.535156-1.464844c-.945313-.945312-1.464844-2.199218-1.464844-3.535156s.519531-2.589844 1.464844-3.535156zm0 0"/><path d="m12.636719 45.363281c-3.507813-3.507812-3.507813-9.21875 0-12.726562l-1.414063-1.414063c-4.289062 4.289063-4.289062 11.265625 0 15.554688 2.144532 2.148437 4.960938 3.21875 7.777344 3.21875s5.632812-1.070313 7.777344-3.21875l-1.414063-1.414063c-3.507812 3.511719-9.21875 3.511719-12.726562 0zm0 0"/><path d="m57 38h-10v-6.304688c2.679688-.589843 5.089844-1.929687 6.945312-3.808593-.171874-1.640625-1-3.125-2.320312-4.117188-.617188-.464843-1.382812-.71875-2.15625-.71875-1.597656 0-3.023438 1.070313-3.460938 2.605469-.589843 2.066406-.9375 4.199219-1.007812 6.34375v6h-10c-.550781 0-1 .445312-1 1v11h24v-11c0-.550781-.449219-1-1-1zm0 0"/><path d="m34 53c0 .550781.449219 1 1 1h22c.550781 0 1-.449219 1-1v-1h-24zm0 0"/><path d="m41 56h10v2h-10zm0 0"/><path d="m24 21v-1h-24v1c0 .550781.449219 1 1 1h22c.550781 0 1-.449219 1-1zm0 0"/><path d="m24 7c0-.550781-.449219-1-1-1h-10v-4h30v2.09375c-1.289062.097656-2.53125.367188-3.703125.785156 1.097656 1.824219 1.703125 3.929688 1.703125 6.050782 0 1.699218-1.019531 3.203124-2.59375 3.835937-1.460938.582031-2.40625 1.976563-2.40625 3.550781 0 1.335938.710938 2.59375 1.855469 3.28125l1.140625.683594c1.234375.742188 2.003906 2.097656 2.003906 3.539062v3.230469c0 .882813-.238281 1.738281-.679688 2.492188.871094.238281 1.777344.394531 2.710938.457031.070312-2.328125.414062-4.644531 1.054688-6.890625.683593-2.390625 2.894531-4.058594 5.382812-4.058594 1.203125 0 2.394531.394531 3.355469 1.121094 1.289062.964844 2.222656 2.28125 2.726562 3.769531.996094-1.449218 1.71875-3.09375 2.109375-4.867187l-1.972656-.820313c-2.242188-.933594-3.6875-3.105468-3.6875-5.53125 0-1.339844-.664062-2.582031-1.777344-3.324218l-1.554687-1.035157c-1.671875-1.113281-2.667969-2.976562-2.667969-4.984375v-1.167968c-.332031-.050782-.664062-.089844-1-.117188v-4.09375h-34v6h-10c-.550781 0-1 .449219-1 1v11h24zm0 0"/><path d="m7 24h10v2h-10zm0 0"/><path d="m38.371094 30.859375c.40625-.519531.628906-1.144531.628906-1.808594v-3.230469c0-.742187-.394531-1.441406-1.03125-1.824218l-1.140625-.683594c-1.742187-1.046875-2.828125-2.960938-2.828125-4.996094 0-2.394531 1.4375-4.519531 3.664062-5.410156.8125-.324219 1.335938-1.097656 1.335938-1.972656 0-1.847656-.546875-3.683594-1.550781-5.25-4.425781 2.355468-7.449219 7.011718-7.449219 12.367187 0 5.714844 3.449219 10.636719 8.371094 12.808594zm0 0"/><path d="m49.777344 8.699219 1.554687 1.035156c1.671875 1.113281 2.667969 2.980469 2.667969 4.988281 0 1.613282.964844 3.0625 2.457031 3.683594l1.492188.621094c.023437-.324219.050781-.648438.050781-.976563 0-6.328125-4.226562-11.683593-10-13.410156v.738281c0 1.335938.664062 2.578125 1.777344 3.320313zm0 0"/></svg>